<svg height="512pt" viewBox="-53 0 512 512" width="512pt" xmlns="http://www.w3.org/2000/svg"><path d="m217.667969 0h-15l-10.667969 21.332031 10.667969 21.335938h15zm0 0" fill="#64b900"/><g fill="#77db03"><path d="m187.667969 0h15v42.667969h-15zm0 0"/><path d="m88.339844 34.652344 25.980468-15 21.332032 36.949218-25.980469 15zm0 0"/><path d="m19.652344 114.328125 15-25.980469 36.945312 21.332032-15 25.980468zm0 0"/><path d="m0 187.667969h42.667969v30h-42.667969zm0 0"/></g><path d="m269.675781 56.609375 21.332031-36.949219 25.980469 15-21.332031 36.949219zm0 0" fill="#64b900"/><path d="m333.722656 109.675781 36.949219-21.332031 15 25.980469-36.949219 21.332031zm0 0" fill="#64b900"/><path d="m362.667969 187.667969h42.667969v30h-42.667969zm0 0" fill="#64b900"/><path d="m202.667969 27.667969-10.667969 185.667969 10.667969 164.332031c96.492187 0 175-78.507813 175-175 0-96.496094-78.507813-175-175-175zm0 0" fill="#69eb00"/><path d="m27.667969 202.667969c0 96.492187 78.503906 175 175 175v-350c-96.496094 0-175 78.503906-175 175zm0 0" fill="#95f720"/><path d="m234.667969 198.332031h30v30h-30zm0 0" fill="#64b900"/><path d="m140.667969 198.332031h30v30h-30zm0 0" fill="#77db03"/><path d="m217.667969 123.664062h-15l-10.667969 15.003907 10.667969 15h15zm0 0" fill="#64b900"/><path d="m187.667969 123.664062h15v30h-15zm0 0" fill="#77db03"/><path d="m367.972656 310h-165.304687l-10.667969 106 10.667969 96h118.59375l17.617187-76.179688-5.773437-18.285156 16.742187-29.148437zm0 0" fill="#fc7419"/><path d="m37.359375 310 18.128906 78.386719 16.363281 27.519531-5.394531 19.914062 17.617188 76.179688h118.59375v-202zm0 0" fill="#f90"/><path d="m318.238281 413.925781-58.851562-47.558593-56.71875 45.375v38.417968l56.621093-45.296875 58.910157 47.601563.03125.039062.007812-.007812.007813.007812.03125-.039062 20.601562-16.644532 10.96875-47.433593zm0 0" fill="#fdae02"/><path d="m145.949219 366.367188-58.851563 47.558593-31.609375-25.539062 10.96875 47.433593 20.597657 16.644532.03125.039062.011718-.007812.007813.007812.03125-.039062 58.90625-47.601563 56.625 45.296875v-38.417968zm0 0" fill="#fdcb02"/><path d="m389.335938 305h-186.667969l-10.667969 15 10.667969 15h186.667969zm0 0" fill="#f7f0eb"/><path d="m16 305h186.667969v30h-186.667969zm0 0" fill="#fff5f5"/></svg>