<svg height="512pt" viewBox="-87 0 512 512" width="512pt" xmlns="http://www.w3.org/2000/svg"><path d="m338.371094 169.1875c0-4.183594-1.714844-8.179688-4.742188-11.0625-.71875-.683594-14.167968-13.351562-34.828125-23.671875 12.730469-19.261719 18.046875-36.957031 18.328125-37.910156 1.179688-4.011719.664063-8.328125-1.425781-11.949219s-5.574219-6.226562-9.636719-7.210938c-.964844-.234374-18.945312-4.476562-41.996094-3.085937 1.394532-23.046875-2.851562-41.03125-3.082031-41.992187-.984375-4.066407-3.589843-7.546876-7.210937-9.636719-3.617188-2.089844-7.9375-2.609375-11.949219-1.425781-.949219.28125-18.648437 5.59375-37.914063 18.324218-10.316406-20.65625-22.984374-34.105468-23.667968-34.824218-2.882813-3.027344-6.882813-4.742188-11.0625-4.742188-4.179688 0-8.179688 1.714844-11.0625 4.742188-.683594.71875-13.351563 14.167968-23.667969 34.824218-19.265625-12.730468-36.960937-18.042968-37.910156-18.324218-4.011719-1.183594-8.332031-.664063-11.949219 1.425781-3.621094 2.089843-6.226562 5.574219-7.210938 9.636719-.234374.960937-4.476562 18.945312-3.085937 41.996093-23.042969-1.394531-41.027344 2.851563-41.992187 3.082031-4.066407.984376-7.546876 3.589844-9.636719 7.210938-2.09375 3.621094-2.609375 7.941406-1.425781 11.949219.28125.953125 5.59375 18.648437 18.324218 37.914062-20.65625 10.316407-34.105468 22.984375-34.824218 23.667969-3.027344 2.882812-4.742188 6.882812-4.742188 11.0625s1.714844 8.179688 4.742188 11.058594c.714843.683594 14.167968 13.351562 34.824218 23.671875-12.730468 19.265625-18.042968 36.960937-18.324218 37.910156-1.179688 4.011719-.664063 8.332031 1.425781 11.949219 2.089843 3.621094 5.570312 6.226562 9.636719 7.210937.960937.234375 18.941406 4.480469 41.992187 3.085938-1.390625 23.050781 2.855469 41.03125 3.085937 41.996093.984376 4.0625 3.589844 7.546876 7.210938 9.636719 3.621094 2.089844 7.9375 2.605469 11.949219 1.421875.953125-.277344 18.648437-5.59375 37.910156-18.324218 10.316406 20.65625 22.984375 34.109374 23.667969 34.824218 2.882812 3.03125 6.882812 4.742188 11.0625 4.742188 4.179687 0 8.179687-1.710938 11.0625-4.742188.683594-.714844 13.351562-14.167968 23.667968-34.824218 19.265626 12.730468 36.960938 18.046874 37.910157 18.324218 4.011719 1.183594 8.332031.667969 11.953125-1.421875 3.621094-2.09375 6.226562-5.574219 7.207031-9.640625.234375-.960937 4.476563-18.945312 3.085937-41.992187 23.046876 1.390625 41.03125-2.851563 41.992188-3.085938 4.066406-.984375 7.546875-3.589843 9.640625-7.210937 2.089844-3.617188 2.605469-7.9375 1.421875-11.949219-.277344-.949219-5.59375-18.644531-18.324219-37.910156 20.65625-10.320313 34.109375-22.988281 34.824219-23.671875 3.03125-2.882813 4.746094-6.878906 4.746094-11.058594zm-169.1875 88.320312c-48.703125 0-88.324219-39.621093-88.324219-88.320312 0-48.703125 39.621094-88.324219 88.324219-88.324219s88.324218 39.621094 88.324218 88.324219c0 48.699219-39.621093 88.320312-88.324218 88.320312zm0 0"/><path d="m169.183594 111.410156c-31.859375 0-57.777344 25.917969-57.777344 57.777344 0 31.855469 25.917969 57.773438 57.777344 57.773438s57.777344-25.917969 57.777344-57.773438c0-31.859375-25.917969-57.777344-57.777344-57.777344zm0 0"/><path d="m273.140625 346.320312c-1.863281-.382812-46.027344-9.117187-78.890625 13.824219-11.023438 7.695313-19.136719 17.816407-25.066406 27.933594-5.933594-10.117187-14.046875-20.238281-25.070313-27.933594-32.859375-22.941406-77.027343-14.207031-78.890625-13.824219-7.953125 1.632813-13.238281 9.203126-12.027344 17.230469.28125 1.882813 7.304688 46.347657 40.171876 69.289063 18.433593 12.871094 40.425781 15.773437 56.511718 15.773437 1.394532 0 2.730469-.023437 4.03125-.0625v48.175781c0 8.433594 6.835938 15.273438 15.273438 15.273438 8.433594 0 15.273437-6.839844 15.273437-15.273438v-48.175781c1.296875.039063 2.636719.0625 4.027344.0625 16.085937 0 38.078125-2.902343 56.511719-15.773437 32.863281-22.941406 39.890625-67.40625 40.171875-69.289063 1.210937-8.027343-4.074219-15.597656-12.027344-17.230469zm0 0"/></svg>