<svg height="511pt" viewBox="-92 1 511 511.99888" width="511pt" xmlns="http://www.w3.org/2000/svg"><path d="m48.34375 336.800781c-8.460938-.113281-15.308594 6.734375-15.195312 15.195313.261718 19.808594 4.199218 55.210937 26.824218 77.832031 22.621094 22.621094 58.019532 26.558594 77.832032 26.824219 8.457031.113281 15.308593-6.738282 15.195312-15.195313-.265625-19.8125-4.203125-55.210937-26.824219-77.832031-22.621093-22.625-58.023437-26.5625-77.832031-26.824219zm0 0" fill="#8ee2cf"/><path d="m113.664062 353.644531c5.371094 32.019531 7.742188 80.964844-24.875 94.332031 17.792969 6.871094 36.507813 8.507813 49.015626 8.675782 8.457031.113281 15.308593-6.738282 15.195312-15.199219-.265625-19.808594-4.203125-55.207031-26.824219-77.832031-3.847656-3.84375-8.066406-7.136719-12.511719-9.976563zm0 0" fill="#6fce91"/><path d="m112.003906 423.15625c-1.917968 0-3.839844-.730469-5.304687-2.195312l-37.859375-37.863282c-2.929688-2.929687-2.929688-7.679687 0-10.609375 2.929687-2.925781 7.675781-2.925781 10.605468 0l37.863282 37.863281c2.929687 2.929688 2.929687 7.679688-.003906 10.605469-1.460938 1.46875-3.382813 2.199219-5.300782 2.199219zm0 0" fill="#6fce91"/><path d="m280.160156 336.800781c8.460938-.113281 15.308594 6.734375 15.195313 15.195313-.265625 19.808594-4.203125 55.210937-26.824219 77.832031s-58.023438 26.558594-77.832031 26.824219c-8.460938.113281-15.308594-6.738282-15.195313-15.195313.261719-19.8125 4.203125-55.210937 26.824219-77.832031 22.621094-22.625 58.019531-26.5625 77.832031-26.824219zm0 0" fill="#8ee2cf"/><path d="m214.839844 353.644531c-5.371094 32.019531-7.746094 80.964844 24.875 94.332031-17.792969 6.871094-36.511719 8.507813-49.015625 8.675782-8.460938.113281-15.308594-6.738282-15.195313-15.199219.261719-19.808594 4.203125-55.207031 26.824219-77.832031 3.84375-3.84375 8.066406-7.136719 12.511719-9.976563zm0 0" fill="#6fce91"/><path d="m216.5 423.15625c-1.921875 0-3.839844-.730469-5.304688-2.195312-2.929687-2.929688-2.929687-7.679688 0-10.605469l37.859376-37.863281c2.933593-2.929688 7.679687-2.929688 10.609374 0 2.929688 2.925781 2.929688 7.675781 0 10.605468l-37.863281 37.863282c-1.464843 1.464843-3.382812 2.195312-5.300781 2.195312zm0 0" fill="#6fce91"/><path d="m195.53125 227.988281h-62.558594v264.582031c0 10.730469 8.699219 19.429688 19.429688 19.429688h23.699218c10.730469 0 19.425782-8.699219 19.425782-19.429688v-264.582031zm0 0" fill="#8ee2cf"/><g fill="#b49cdc"><path d="m308.136719 115.789062c-26.488281-26.488281-69.433594-26.488281-95.921875 0l-47.964844 47.960938 47.964844 47.964844c26.488281 26.488281 69.433594 26.488281 95.921875 0 26.488281-26.488282 26.488281-69.4375 0-95.925782zm0 0"/><path d="m116.289062 19.867188c-26.488281 26.488281-26.488281 69.433593 0 95.921874l47.960938 47.960938 47.964844-47.960938c26.488281-26.488281 26.488281-69.433593 0-95.921874-26.492188-26.488282-69.4375-26.488282-95.925782 0zm0 0"/><path d="m20.367188 211.714844c26.488281 26.488281 69.433593 26.488281 95.921874 0l47.960938-47.964844-47.960938-47.960938c-26.488281-26.488281-69.433593-26.488281-95.921874 0-26.488282 26.488282-26.488282 69.4375 0 95.925782zm0 0"/><path d="m212.214844 307.636719c26.488281-26.488281 26.488281-69.433594 0-95.921875l-47.964844-47.964844-47.960938 47.964844c-26.488281 26.488281-26.488281 69.433594 0 95.921875 26.488282 26.488281 69.433594 26.488281 95.925782 0zm0 0"/></g><path d="m164.25 107.015625c-4.140625 0-7.5-3.359375-7.5-7.5v-53.207031c0-4.140625 3.359375-7.5 7.5-7.5 4.144531 0 7.5 3.359375 7.5 7.5v53.207031c0 4.140625-3.355469 7.5-7.5 7.5zm0 0" fill="#908cd6"/><path d="m100.015625 171.25h-53.207031c-4.144532 0-7.5-3.355469-7.5-7.5 0-4.140625 3.355468-7.5 7.5-7.5h53.207031c4.144531 0 7.5 3.359375 7.5 7.5 0 4.144531-3.359375 7.5-7.5 7.5zm0 0" fill="#908cd6"/><path d="m164.25 288.695312c-4.140625 0-7.5-3.359374-7.5-7.5v-53.207031c0-4.140625 3.359375-7.5 7.5-7.5 4.144531 0 7.5 3.359375 7.5 7.5v53.207031c0 4.140626-3.355469 7.5-7.5 7.5zm0 0" fill="#908cd6"/><path d="m281.695312 171.25h-53.207031c-4.144531 0-7.5-3.355469-7.5-7.5 0-4.140625 3.355469-7.5 7.5-7.5h53.207031c4.140626 0 7.5 3.359375 7.5 7.5 0 4.144531-3.359374 7.5-7.5 7.5zm0 0" fill="#908cd6"/><path d="m228.488281 35.28125c-35.476562 0-64.238281 28.757812-64.238281 64.234375v64.234375h64.238281c35.476563 0 64.234375-28.757812 64.234375-64.234375s-28.757812-64.234375-64.234375-64.234375zm0 0" fill="#a3defe"/><path d="m35.78125 99.515625c0 35.476563 28.757812 64.234375 64.234375 64.234375h64.234375v-64.234375c0-35.476563-28.757812-64.234375-64.234375-64.234375s-64.234375 28.757812-64.234375 64.234375zm0 0" fill="#a3defe"/><path d="m100.015625 292.222656c35.476563 0 64.234375-28.757812 64.234375-64.234375v-64.238281h-64.234375c-35.476563 0-64.234375 28.761719-64.234375 64.238281 0 35.476563 28.757812 64.234375 64.234375 64.234375zm0 0" fill="#a3defe"/><path d="m292.722656 227.988281c0-35.476562-28.757812-64.238281-64.234375-64.238281h-64.238281v64.238281c0 35.476563 28.761719 64.234375 64.238281 64.234375 35.476563 0 64.234375-28.757812 64.234375-64.234375zm0 0" fill="#a3defe"/><path d="m203.308594 132.191406c-1.917969 0-3.835938-.730468-5.300782-2.195312-2.929687-2.929688-2.929687-7.679688 0-10.605469l28.476563-28.476563c2.925781-2.929687 7.675781-2.925781 10.605469 0 2.925781 2.929688 2.925781 7.679688-.003906 10.609376l-28.472657 28.472656c-1.464843 1.464844-3.382812 2.195312-5.304687 2.195312zm0 0" fill="#7acefa"/><path d="m125.191406 132.191406c-1.917968 0-3.839844-.730468-5.300781-2.195312l-28.476563-28.472656c-2.929687-2.929688-2.929687-7.679688 0-10.609376 2.929688-2.925781 7.679688-2.929687 10.605469 0l28.476563 28.476563c2.929687 2.929687 2.929687 7.675781 0 10.605469-1.464844 1.464844-3.382813 2.195312-5.304688 2.195312zm0 0" fill="#7acefa"/><path d="m96.71875 238.785156c-1.921875 0-3.839844-.730468-5.304688-2.199218-2.929687-2.925782-2.929687-7.675782 0-10.605469l28.476563-28.472657c2.929687-2.929687 7.679687-2.929687 10.605469 0 2.929687 2.929688 2.929687 7.679688 0 10.605469l-28.476563 28.476563c-1.460937 1.464844-3.382812 2.195312-5.300781 2.195312zm0 0" fill="#7acefa"/><path d="m231.785156 238.785156c-1.917968 0-3.839844-.730468-5.304687-2.199218l-28.476563-28.472657c-2.925781-2.929687-2.925781-7.675781 0-10.605469 2.929688-2.929687 7.679688-2.929687 10.609375 0l28.472657 28.472657c2.929687 2.929687 2.929687 7.679687 0 10.605469-1.460938 1.46875-3.382813 2.199218-5.300782 2.199218zm0 0" fill="#7acefa"/><path d="m228.488281 163.75c0 35.476562-28.761719 64.238281-64.238281 64.238281s-64.234375-28.761719-64.234375-64.238281 28.757813-64.234375 64.234375-64.234375 64.238281 28.757813 64.238281 64.234375zm0 0" fill="#f7ef87"/><path d="m164.25 227.988281c22.246094 0 41.84375-11.308593 53.375-28.488281-74.332031 10.671875-95.695312-61.171875-82.832031-92.824219-20.652344 10.679688-34.777344 32.222657-34.777344 57.074219 0 35.480469 28.761719 64.238281 64.234375 64.238281zm0 0" fill="#efd176"/></svg>