<svg height="511pt" viewBox="-89 0 511 511.998" width="511pt" xmlns="http://www.w3.org/2000/svg"><path d="m84.785156 368.921875c-2.929687-2.929687-7.679687-2.929687-10.605468 0-2.929688 2.929687-2.929688 7.679687 0 10.605469l36.753906 36.753906c1.464844 1.464844 3.382812 2.199219 5.300781 2.199219 1.921875 0 3.839844-.734375 5.304687-2.199219 2.929688-2.929688 2.929688-7.675781 0-10.605469zm248.621094-202.46875c0-19.589844-7.628906-38.007813-21.480469-51.859375-3.867187-3.863281-8.152343-7.273438-12.773437-10.1875 0-.101562.007812-.203125.007812-.304688 0-38.519531-31.335937-69.855468-69.855468-69.855468-.101563 0-.203126.007812-.304688.007812-2.914062-4.621094-6.324219-8.90625-10.1875-12.773437-13.851562-13.851563-32.273438-21.480469-51.863281-21.480469-19.589844 0-38.007813 7.628906-51.855469 21.480469-3.867188 3.867187-7.277344 8.152343-10.191406 12.773437-.101563 0-.203125-.007812-.304688-.007812-16.894531 0-33.199218 6.109375-45.914062 17.207031-3.121094 2.722656-3.441406 7.460937-.71875 10.582031s7.460937 3.441406 10.582031.71875c9.980469-8.710937 22.785156-13.507812 36.050781-13.507812 1.253906 0 2.496094.058594 3.730469.140625.027344.003906.054687.003906.082031.007812 26.128906 1.804688 47.269532 21.976563 50.574219 47.671875-13.460937 1.535156-25.769531 6.910156-35.804687 15.003906l-16.480469-16.472656c-2.929688-2.929687-7.675781-2.929687-10.605469 0-2.929688 2.925782-2.929688 7.675782 0 10.605469l16.476562 16.476563c-8.09375 10.035156-13.46875 22.34375-15.003906 35.808593-25.695312-3.304687-45.871094-24.449219-47.675781-50.578125 0-.023437 0-.050781-.003906-.074218-.082031-1.238282-.140625-2.480469-.140625-3.734376 0-5.570312.828125-11.058593 2.464844-16.316406 1.230468-3.953125-.980469-8.15625-4.933594-9.390625-3.957032-1.230469-8.160156.980469-9.390625 4.933594-2.085938 6.703125-3.144531 13.691406-3.144531 20.773437 0 .101563.007812.203126.011718.304688-4.625 2.914062-8.910156 6.324219-12.773437 10.1875-13.855469 13.851562-21.480469 32.269531-21.480469 51.859375s7.628906 38.007813 21.480469 51.859375c3.863281 3.867188 8.148437 7.277344 12.773437 10.191406 0 .101563-.011718.199219-.011718.304688 0 38.515625 31.339843 69.851562 69.855468 69.851562.101563 0 .203125-.003906.304688-.007812 2.914062 4.625 6.324218 8.910156 10.1875 12.773437 4.265625 4.265625 8.96875 7.9375 14 10.980469v27.222656c-23.75-19.039062-56.316406-22.453125-74.550782-22.699218-.101562 0-.203124 0-.304687 0-5.898437 0-11.425781 2.285156-15.59375 6.453124-4.242187 4.238282-6.53125 9.886719-6.453125 15.898438.265625 19.878906 4.285156 56.808594 28.234375 80.753906 19.324219 19.324219 46.800781 25.839844 68.667969 27.648438v27.957031c0 14.535156 11.820312 26.355469 26.355468 26.355469h23.007813c14.535156 0 26.359375-11.820313 26.359375-26.355469v-27.949219c36.679688-3 57.503906-16.492187 68.667969-27.65625 9.753906-9.753906 17.125-22.5625 21.910156-38.0625 1.21875-3.960937-.996094-8.160156-4.957031-9.378906-3.960938-1.222656-8.15625.996094-9.378906 4.953125-4.054688 13.148437-10.171876 23.875-18.183594 31.882813-7.597656 7.597656-24.929688 20.179687-58.0625 23.195312v-71.921875c1.417968-1.765625 2.894531-3.417969 4.40625-4.929687 20.195312-20.199219 52.742187-23.605469 70.347656-23.839844 1.902344-.035156 3.738281.703125 5.089844 2.058594 1.355468 1.351562 2.085937 3.160156 2.0625 5.089843-.023438 1.703125-.074219 3.414063-.152344 5.09375-.191406 4.136719 3.011719 7.644531 7.148438 7.835938 4.183593.191406 7.648437-3.015625 7.835937-7.152344.085937-1.835937.140625-3.714844.164063-5.578125.078124-6.011719-2.210938-11.65625-6.449219-15.894531-4.238281-4.242188-9.894531-6.5-15.898438-6.453125-18.234375.242187-50.804687 3.65625-74.550781 22.699218v-27.222656c5.03125-3.046875 9.730469-6.714844 13.996094-10.980468 3.867187-3.867188 7.277344-8.152344 10.1875-12.773438.105468 0 .203125.007812.308594.007812 38.515624 0 69.851562-31.335937 69.851562-69.855468 0-.101563-.003906-.203125-.007812-.304688 4.625-2.910156 8.910156-6.320312 12.773437-10.1875 13.855469-13.855468 21.484375-32.269531 21.484375-51.863281zm-204.316406 276.164063c-17.0625-1.597657-41.730469-6.855469-58.0625-23.1875-20.195313-20.195313-23.605469-52.742188-23.839844-70.347657-.027344-1.929687.707031-3.738281 2.058594-5.09375 1.355468-1.351562 3.175781-2.089843 5.09375-2.058593 17.601562.234374 50.148437 3.644531 70.347656 23.84375 1.511719 1.511718 2.984375 3.164062 4.402344 4.929687zm100.214844-393.371094c30.246093 0 54.855468 24.609375 54.855468 54.855468 0 1.257813-.058594 2.5-.140625 3.734376-.003906.023437-.003906.050781-.007812.074218-1.800781 26.132813-21.980469 47.273438-47.671875 50.578125-1.539063-13.460937-6.914063-25.769531-15.007813-35.808593l16.476563-16.476563c2.929687-2.929687 2.929687-7.675781 0-10.605469-2.929688-2.929687-7.675782-2.929687-10.605469 0l-16.476563 16.476563c-10.035156-8.09375-22.34375-13.46875-35.808593-15.003907 3.464843-26.9375 26.523437-47.824218 54.386719-47.824218zm-107.5-12.847656c1.226562-1.5 2.519531-2.9375 3.894531-4.3125 11.019531-11.019532 25.667969-17.085938 41.25-17.085938 15.585937 0 30.234375 6.070312 41.253906 17.089844 1.371094 1.371094 2.667969 2.808594 3.894531 4.304687-19.742187 5.023438-36.136718 18.472657-45.148437 36.277344-9.007813-17.804687-25.402344-31.253906-45.144531-36.273437zm45.144531 75.203124c30.25 0 54.855469 24.605469 54.855469 54.851563 0 30.25-24.605469 54.855469-54.855469 54.855469-30.246094 0-54.851563-24.605469-54.851563-54.855469 0-30.246094 24.605469-54.851563 54.851563-54.851563zm-134.363281 96.109376c-11.019532-11.019532-17.089844-25.671876-17.089844-41.253907 0-15.585937 6.070312-30.234375 17.089844-41.253906 1.371093-1.371094 2.8125-2.667969 4.308593-3.890625 5.019531 19.738281 18.472657 36.132812 36.273438 45.140625-17.800781 9.011719-31.253907 25.40625-36.273438 45.148437-1.5-1.226562-2.9375-2.523437-4.308593-3.890624zm75.828124 75.804687c-.027343.003906-.058593.003906-.085937.007813-1.234375.082031-2.476563.140624-3.730469.140624-30.246094 0-54.855468-24.609374-54.855468-54.855468 0-1.257813.058593-2.5.144531-3.734375 0-.023438.003906-.050781.003906-.078125 1.804687-26.128906 21.980469-47.269532 47.675781-50.574219 1.535156 13.460937 6.910156 25.769531 15.003906 35.808594l-16.476562 16.476562c-2.929688 2.929688-2.929688 7.675781 0 10.605469 1.464844 1.464844 3.382812 2.195312 5.304688 2.195312 1.917968 0 3.835937-.730468 5.300781-2.195312l16.480469-16.476562c10.035156 8.09375 22.34375 13.46875 35.804687 15.003906-3.304687 25.695312-24.445313 45.871094-50.570313 47.675781zm81.398438 202.125c0 6.265625-5.09375 11.359375-11.359375 11.359375h-23.007813c-6.261718 0-11.355468-5.09375-11.355468-11.359375v-156.367187c7.285156 2.378906 14.972656 3.636718 22.859375 3.636718 7.890625 0 15.578125-1.257812 22.863281-3.636718zm18.390625-184.820313c-4.253906 4.257813-9.058594 7.765626-14.242187 10.480469-.089844.046875-.183594.089844-.269532.136719-8.167968 4.222656-17.28125 6.472656-26.738281 6.472656-9.464844 0-18.578125-2.253906-26.75-6.476562-.070313-.042969-.148437-.078125-.226563-.117188-5.199218-2.714844-10.011718-6.230468-14.277343-10.496094-1.371094-1.371093-2.667969-2.808593-3.890625-4.308593 19.738281-5.019531 36.132812-18.472657 45.144531-36.273438 9.007813 17.800781 25.40625 31.253907 45.144531 36.273438-1.226562 1.5-2.523437 2.9375-3.894531 4.308593zm21.101563-17.15625c-1.253907 0-2.496094-.058593-3.734376-.140624-.023437-.003907-.054687-.003907-.082031-.007813-26.128906-1.804687-47.265625-21.980469-50.574219-47.675781 13.464844-1.535156 25.773438-6.910156 35.808594-15.003906l16.476563 16.476562c1.464843 1.464844 3.386719 2.199219 5.304687 2.199219 1.921875 0 3.839844-.734375 5.304688-2.199219 2.929687-2.929688 2.929687-7.675781 0-10.605469l-16.476563-16.476562c8.09375-10.035157 13.46875-22.34375 15.007813-35.808594 25.691406 3.304687 45.867187 24.445313 47.671875 50.578125.003906.023438.003906.050781.007812.078125.082031 1.234375.140625 2.476563.140625 3.734375 0 30.242188-24.609375 54.851562-54.855468 54.851562zm67.703124-72.066406c-5.019531-19.738281-18.472656-36.132812-36.273437-45.144531 17.804687-9.007813 31.253906-25.40625 36.273437-45.144531 1.5 1.226562 2.9375 2.519531 4.308594 3.890625 11.023438 11.019531 17.089844 25.671875 17.089844 41.253906s-6.066406 30.234375-17.089844 41.253906c-1.371094 1.371094-2.808594 2.667969-4.308594 3.890625zm-47.890624 157.324219-36.753907 36.753906c-2.929687 2.929688-2.929687 7.679688 0 10.605469 1.464844 1.464844 3.382813 2.199219 5.304688 2.199219 1.917969 0 3.839843-.734375 5.304687-2.199219l36.753906-36.753906c2.925782-2.929688 2.925782-7.675782 0-10.605469-2.929687-2.929687-7.679687-2.929687-10.609374 0zm0 0"/></svg>