<svg height="512pt" viewBox="0 -10 512 511" width="512pt" xmlns="http://www.w3.org/2000/svg"><path d="m469.550781 127.847656 21.226563 21.222656 21.222656-21.222656-31.835938-31.835937c-23.453124-23.453125-54-37.207031-86.800781-39.277344-9.507812-15.335937-17.9375-23.011719-29.933593-35.011719l-21.226563-21.222656-21.226563 21.222656 21.226563 21.226563-21.820313 21.816406c-5.8125-7.265625-9.414062-10.597656-20.628906-21.816406l-21.226562-21.226563-21.222656 21.226563 21.222656 21.222656-31.835938 31.839844c-37.683594 37.679687-40.546875 96.351562-9.863281 137.207031l-35.195313 35.195312-21.222656-21.222656-21.226562 21.222656 21.226562 21.226563-49.566406 49.566406c1.59375-9.269531 2.410156-18.742187 2.410156-28.34375 0-44.09375-17.171875-85.550781-48.355468-116.734375l-10.613282-10.609375-10.609375 10.609375c-31.1875 31.1875-48.359375 72.644532-48.359375 116.742188 0 39.046875 13.480469 76.023437 38.226563 105.636718l-53.542969 53.542969 21.222656 21.222657 53.542969-53.542969c29.613281 24.746093 66.589844 38.226562 105.636719 38.226562 44.097656 0 85.558594-17.171875 116.742187-48.359375l10.609375-10.613281-10.609375-10.609375c-39.4375-39.4375-94.027343-54.707031-145.207031-45.816406l28.472656-28.46875 21.222656 21.222656 21.226563-21.222656-21.226563-21.226563 21.226563-21.222656 21.226563 21.222656 21.222656-21.222656-21.222656-21.226563 13.980468-13.980468c41.1875 30.839844 99.890625 27.457031 137.199219-9.851563l31.835937-31.835937 21.226563 21.222656 21.222656-21.222656-31.835937-31.835938c-3.566406-3.566406-7.3125-6.902344-11.210938-10.015625zm-205.558593 289.144532c-23.730469 18.765624-52.878907 28.949218-83.589844 28.949218-30.703125 0-59.847656-10.183594-83.578125-28.949218 48.835937-38.519532 118.335937-38.515626 167.167969 0zm183.585937-309.625-34.738281 34.742187c1.527344-14.453125.746094-29.132813-2.421875-43.480469-.710938-3.230468-1.546875-6.421875-2.488281-9.570312 14.34375 3.230468 27.816406 9.421875 39.648437 18.308594zm-84.894531-42.453126c17.785156 23.628907 24.667968 53.339844 19.121094 82.390626-10.394532-3.1875-21.1875-5.128907-32.15625-5.738282-.960938-17.40625-5.265626-34.660156-12.910157-50.707031zm-288.398438 162.359376c18.769532 23.730468 28.953125 52.878906 28.953125 83.59375 0 30.710937-10.183593 59.859374-28.953125 83.589843-18.769531-23.730469-28.953125-52.878906-28.953125-83.585937 0-30.714844 10.183594-59.867188 28.953125-83.597656zm193.628906-110.039063 31.082032-31.082031c30.789062 41.117187 27.5 99.847656-9.855469 137.203125l-9.546875 9.546875c-4.128906-2.730469-8.046875-5.910156-11.679688-9.542969-29.324218-29.328125-29.328124-76.796875 0-106.125zm106.125 106.121094c-17.320312 17.324219-41.074218 24.386719-63.644531 21.195312 20.589844-20.601562 33.121094-46.253906 37.601563-73 20.683594 1.148438 40.566406 8.363281 57.117187 20.734375zm0 0"/></svg>