<svg height="512pt" viewBox="0 -11 512 512" width="512pt" xmlns="http://www.w3.org/2000/svg"><path d="m330.742188 54.007812c17.378906 21.4375 28.144531 46.402344 32.003906 72.398438 15.359375 2.3125 30.160156 6.703125 43.953125 13.5 10.074219-51.410156-10.609375-86.019531-43.257813-118.667969l-21.238281-21.238281-21.222656 21.226562 21.257812 21.257813zm0 0"/><path d="m433.515625 156.746094c1.246094.945312 2.34375 2.09375 3.558594 3.082031l32.476562-32.476563 21.226563 21.222657 21.222656-21.222657-21.222656-21.226562c-19.421875-19.421875-32.410156-32.441406-61.515625-42.585938 11.003906 29.171876 12.902343 61.558594 4.253906 93.207032zm0 0"/><path d="m395.265625 244.085938 21.222656-21.226563 21.226563 21.226563 21.222656-21.226563-21.222656-21.222656c-21.226563-21.226563-37.484375-37.496094-73.648438-44.75-1.964844 35.601562-15.953125 70.671875-43.089844 97.808593l-18.347656 18.351563c32.636719 5.746094 67.476563-3.804687 92.636719-28.960937zm0 0"/><path d="m278.527344 424.496094c-42.195313-42.199219-103.367188-53.476563-156.210938-34.8125l50.089844-50.085938 21.222656 21.222656 21.226563-21.222656-21.226563-21.226562 21.226563-21.222656 21.222656 21.222656 21.226563-21.222656-21.226563-21.226563 22.171875-22.167969c4.226562 3 8.625 5.671875 13.128906 8.09375l28.375-28.375c42.132813-42.132812 55.078125-114.714844-10.613281-180.410156l-21.226563-21.222656-21.222656 21.222656 21.222656 21.226562-21.222656 21.222657c-37.324218 37.324219-40.238281 95.777343-9.539062 136.886719l-43.523438 43.523437-21.222656-21.226563-21.226562 21.226563 21.226562 21.222656-71.3125 71.3125c18.664062-52.84375 7.386719-114.011719-34.8125-156.210937-54.878906 54.878906-57.601562 141.671875-9.539062 200.5625l-56.742188 56.742187 21.222656 21.226563 56.746094-56.742188c58.886719 48.0625 145.679688 45.339844 200.558594-9.539062zm0 0"/></svg>