<svg height="512pt" viewBox="0 -50 512.001 512" width="512pt" xmlns="http://www.w3.org/2000/svg"><path d="m225.398438 99.835938c0-49.617188-40.222657-89.835938-89.839844-89.835938-49.617188 0-89.839844 40.21875-89.839844 89.835938 0 49.613281 40.222656 89.832031 89.839844 89.832031 49.617187 0 89.839844-40.21875 89.839844-89.832031zm0 0" fill="#ffddcf"/><path d="m497.765625 233.574219-80.761719-55.683594c-6.496094-4.480469-15.351562.167969-15.351562 8.058594v27.558593h-92.628906v56.253907h92.628906v27.558593c0 7.886719 8.855468 12.539063 15.351562 8.058594l80.761719-55.683594c5.644531-3.890624 5.644531-12.230468 0-16.121093zm0 0" fill="#aae2c9"/><path d="m261.117188 342.246094v18.386718c-34.972657 26.261719-78.453126 41.816407-125.558594 41.816407-47.105469 0-90.585938-15.554688-125.558594-41.816407v-139.183593c0-17.554688 14.226562-31.777344 31.78125-31.777344h187.558594c17.554687 0 31.777344 14.222656 31.777344 31.777344v30.867187" fill="#60a4ff"/><path d="m411.449219 317.121094c-3.144531 0-6.304688-.753906-9.207031-2.28125-6.53125-3.429688-10.589844-10.140625-10.589844-17.519532v-17.558593h-82.628906c-5.519532 0-10-4.476563-10-10v-56.253907c0-5.523437 4.480468-10 10-10h82.628906v-17.554687c0-7.378906 4.058594-14.09375 10.589844-17.523437 6.53125-3.433594 14.363281-2.960938 20.4375 1.226562l80.765624 55.683594c5.355469 3.695312 8.554688 9.789062 8.554688 16.296875 0 6.507812-3.199219 12.597656-8.554688 16.292969l-80.765624 55.683593c-3.375 2.328125-7.292969 3.507813-11.230469 3.507813zm-92.425781-57.359375h82.628906c5.523437 0 10 4.476562 10 10v27.160156l80.1875-55.289063-80.1875-55.285156v27.160156c0 5.523438-4.480469 10-10 10h-82.628906zm173.066406-17.957031c.003906.003906.007812.003906.007812.007812l5.667969-8.238281zm0 0"/><path d="m261.117188 262.316406c5.523437 0 10-4.476562 10-10v-30.867187c0-23.039063-18.742188-41.78125-41.777344-41.78125h-33.898438c24.246094-18.230469 39.957032-47.230469 39.957032-79.832031 0-55.050782-44.789063-99.835938-99.839844-99.835938-55.050782 0-99.839844 44.785156-99.839844 99.835938 0 32.601562 15.710938 61.601562 39.957031 79.832031h-33.898437c-23.035156.003906-41.777344 18.742187-41.777344 41.78125v139.183593c0 3.144532 1.480469 6.109376 3.996094 7.996094 38.175781 28.667969 83.667968 43.820313 131.5625 43.820313 47.894531 0 93.386718-15.152344 131.5625-43.820313 2.515625-1.886718 3.996094-4.851562 3.996094-7.996094v-18.386718c0-5.523438-4.476563-10-10-10-5.523438 0-10 4.476562-10 10v13.3125c-33.84375 24.148437-73.691407 36.890625-115.558594 36.890625-41.867188 0-81.714844-12.742188-115.558594-36.890625v-134.109375c0-12.007813 9.769531-21.777344 21.777344-21.777344h187.558594c12.011718 0 21.78125 9.769531 21.78125 21.777344v30.867187c0 5.523438 4.476562 10 10 10zm-205.398438-162.480468c0-44.023438 35.816406-79.835938 79.839844-79.835938 44.023437 0 79.839844 35.8125 79.839844 79.835938 0 44.019531-35.816407 79.832031-79.839844 79.832031-44.023438 0-79.839844-35.8125-79.839844-79.832031zm0 0"/><path d="m261.121094 307.265625c-4.179688 0-8.007813-2.710937-9.417969-6.636719-1.382813-3.851562-.207031-8.359375 2.945313-10.992187 3.304687-2.761719 8.074218-3.140625 11.746093-.867188 3.496094 2.160157 5.335938 6.417969 4.527344 10.445313-.929687 4.609375-5.085937 8.050781-9.800781 8.050781zm0 0"/></svg>